<svg width="519" height="412" viewBox="0 0 519 412" fill="none" xmlns="http://www.w3.org/2000/svg">
<g clip-path="url(#clip0)">
<path d="M277.324 87.2795C296.14 87.2795 311.393 72.0263 311.393 53.2105C311.393 34.3947 296.14 19.1414 277.324 19.1414C258.508 19.1414 243.255 34.3947 243.255 53.2105C243.255 72.0263 258.508 87.2795 277.324 87.2795Z" fill="#FE5454"/>
<path d="M174.743 217.175C174.743 282.976 135.625 305.951 87.3715 305.951C39.1175 305.951 0 282.976 0 217.175C0 151.374 87.3715 67.6643 87.3715 67.6643C87.3715 67.6643 174.743 151.374 174.743 217.175Z" fill="#F2F2F2"/>
<path d="M84.1889 295.886L85.0832 240.816L122.323 172.687L85.2238 232.177L85.6257 207.416L111.292 158.125L85.7321 200.863L86.4561 156.328L113.939 117.087L86.5695 149.326L87.0214 67.6643L84.1809 175.769L84.4141 171.309L56.4718 128.538L83.9664 179.87L81.3628 229.608L81.2851 228.288L49.0724 183.278L81.1877 232.951L80.8619 239.172L80.8039 239.265L80.8305 239.776L74.2248 365.964H83.0503L84.1091 300.785L116.145 251.234L84.1889 295.886Z" fill="#3F3D56"/>
<path d="M433.658 182.654C433.658 263.041 385.869 291.11 326.918 291.11C267.967 291.11 220.178 263.041 220.178 182.654C220.178 102.266 326.918 -3.05176e-05 326.918 -3.05176e-05C326.918 -3.05176e-05 433.658 102.266 433.658 182.654Z" fill="#F2F2F2"/>
<path d="M323.03 278.813L324.122 211.536L369.618 128.304L324.294 200.982L324.786 170.731L356.141 110.514L324.916 162.726L325.799 108.319L359.375 60.3783L325.938 99.7632L326.491 0L323.02 132.069L323.305 126.62L289.169 74.3684L322.758 137.079L319.577 197.842L319.483 196.23L280.129 141.242L319.363 201.927L318.965 209.526L318.895 209.641L318.927 210.264L310.857 364.426H321.639L322.933 284.799L362.07 224.262L323.03 278.813Z" fill="#3F3D56"/>
<path d="M212.913 370.478C303.463 370.478 376.869 367.857 376.869 364.623C376.869 361.389 303.463 358.767 212.913 358.767C122.362 358.767 48.9564 361.389 48.9564 364.623C48.9564 367.857 122.362 370.478 212.913 370.478Z" fill="#3F3D56"/>
<path d="M443.41 412C485.157 412 519 408.783 519 404.814C519 400.845 485.157 397.627 443.41 397.627C401.662 397.627 367.82 400.845 367.82 404.814C367.82 408.783 401.662 412 443.41 412Z" fill="#3F3D56"/>
<path d="M222.495 184.696H203.331V364.623H222.495V184.696Z" fill="#2F2E41"/>
<path d="M300.746 225.685H183.102V192.681H300.746L334.815 209.183L300.746 225.685Z" fill="#3F3D56"/>
<path opacity="0.1" d="M300.746 223.023H183.102V225.685H300.746L334.815 209.183L332.068 207.852L300.746 223.023Z" fill="black"/>
<path d="M125.611 269.336H243.255V236.332H125.611L91.5425 252.834L125.611 269.336Z" fill="#3F3D56"/>
<path opacity="0.1" d="M94.2898 251.503L91.5425 252.834L125.611 269.336H243.255V266.674H125.611L94.2898 251.503Z" fill="black"/>
<path d="M269.339 199.069H249.111V219.297H269.339V199.069Z" fill="#FE5454"/>
<path d="M167.665 262.948C173.251 262.948 177.779 258.42 177.779 252.834C177.779 247.248 173.251 242.719 167.665 242.719C162.079 242.719 157.551 247.248 157.551 252.834C157.551 258.42 162.079 262.948 167.665 262.948Z" fill="#FE5454"/>
<path d="M212.913 213.974C216.147 213.974 218.768 211.352 218.768 208.118C218.768 204.884 216.147 202.262 212.913 202.262C209.679 202.262 207.057 204.884 207.057 208.118C207.057 211.352 209.679 213.974 212.913 213.974Z" fill="#2F2E41"/>
<path d="M212.913 257.625C216.147 257.625 218.768 255.003 218.768 251.769C218.768 248.535 216.147 245.913 212.913 245.913C209.679 245.913 207.057 248.535 207.057 251.769C207.057 255.003 209.679 257.625 212.913 257.625Z" fill="#2F2E41"/>
<path d="M173.521 344.573C173.521 356.534 166.411 360.71 157.639 360.71C157.436 360.71 157.233 360.708 157.031 360.703C156.624 360.695 156.222 360.675 155.824 360.648C147.908 360.088 141.758 355.697 141.758 344.573C141.758 333.061 156.468 318.536 157.573 317.461L157.575 317.459C157.618 317.417 157.639 317.397 157.639 317.397C157.639 317.397 173.521 332.612 173.521 344.573Z" fill="#FE5454"/>
<path d="M157.061 358.88L162.869 350.764L157.046 359.771L157.031 360.703C156.624 360.695 156.222 360.675 155.824 360.648L156.45 348.682L156.445 348.589L156.456 348.571L156.515 347.441L150.677 338.411L156.533 346.594L156.547 346.833L157.02 337.792L152.022 328.461L157.081 336.205L157.573 317.461L157.575 317.397V317.459L157.493 332.24L162.469 326.38L157.473 333.513L157.341 341.608L161.987 333.839L157.322 342.8L157.248 347.3L163.993 336.487L157.223 348.87L157.061 358.88Z" fill="#3F3D56"/>
<path d="M418.944 391.726C418.944 391.726 411.407 398.073 407.44 397.676C403.473 397.279 395.936 397.279 399.109 401.643C402.283 406.007 415.374 408.387 420.928 408.784C426.481 409.18 438.779 409.577 437.986 407.197C437.192 404.817 436.399 393.709 433.225 392.916C430.052 392.122 418.944 391.726 418.944 391.726Z" fill="#575A89"/>
<path d="M462.204 385.494C462.204 385.494 456.65 393.633 452.722 394.317C448.794 395.001 441.535 397.027 445.764 400.377C449.994 403.728 463.243 402.502 468.699 401.391C474.155 400.281 486.106 397.358 484.703 395.278C483.299 393.199 479.549 382.713 476.279 382.802C473.009 382.891 462.204 385.494 462.204 385.494Z" fill="#575A89"/>
<path d="M414.529 269.09C414.529 269.09 409.423 304.055 410.613 310.403C411.804 316.75 412.597 326.667 412.597 326.667C412.597 326.667 411.804 334.998 412.597 338.965C413.39 342.932 418.151 380.618 418.151 381.412C418.151 382.205 417.357 384.585 418.151 386.569C418.944 388.552 420.531 386.965 418.151 390.139C415.771 393.313 417.357 394.106 417.754 394.106C418.151 394.106 433.622 395.693 434.415 394.106C435.209 392.519 434.019 392.122 434.415 390.139C434.812 388.155 435.209 387.759 436.002 387.362C436.795 386.965 438.382 387.759 437.192 385.775C436.002 383.792 433.225 381.412 434.019 380.221C434.812 379.031 433.622 370.304 433.622 370.304C433.622 370.304 432.828 350.866 432.432 338.965C432.035 327.064 436.002 314.766 436.002 314.766C436.496 324.504 440.113 333.823 446.316 341.345C456.63 353.643 461.787 376.651 461.787 376.651C461.787 376.651 464.167 380.221 462.977 383.395C461.787 386.569 458.217 384.585 461.787 386.569C465.358 388.552 477.655 385.775 478.845 384.585C480.035 383.395 477.258 381.808 478.052 378.635C478.845 375.461 482.019 376.254 479.242 374.668C476.465 373.081 475.672 373.478 475.672 371.891C475.672 370.304 468.531 335.791 457.424 325.874L456.63 289.774C456.63 289.774 466.548 264.385 456.234 262.005C445.919 259.625 414.529 269.09 414.529 269.09Z" fill="#2F2E41"/>
<path d="M421.721 175.128C421.721 175.128 428.465 191.79 426.878 194.17C425.291 196.55 446.316 186.236 446.316 186.236C446.316 186.236 439.572 169.575 439.572 167.591C439.572 165.608 421.721 175.128 421.721 175.128Z" fill="#A0616A"/>
<path d="M426.68 179.294C434.786 179.294 441.357 172.722 441.357 164.616C441.357 156.509 434.786 149.938 426.68 149.938C418.573 149.938 412.002 156.509 412.002 164.616C412.002 172.722 418.573 179.294 426.68 179.294Z" fill="#A0616A"/>
<path d="M446.316 179.492C446.316 179.492 436.002 178.302 430.845 184.649C425.688 190.996 424.895 192.583 424.895 192.583C424.895 192.583 412.597 212.418 414.977 222.335C415.557 223.231 416.087 224.158 416.564 225.112C417.357 226.699 417.357 248.914 416.564 252.485C415.771 256.055 414.977 257.245 415.771 262.402C416.564 267.559 409.423 275.89 417.754 277.477C426.085 279.063 432.432 277.873 435.209 274.303C437.986 270.733 435.605 268.352 444.333 268.352C453.06 268.352 458.614 262.402 458.614 262.402C458.614 262.402 454.25 257.642 455.837 256.848C457.424 256.055 455.837 254.071 455.044 252.088C454.25 250.104 454.25 248.518 455.44 248.518C456.63 248.518 455.837 247.724 455.044 245.741C454.25 243.757 468.928 209.641 460.201 199.724C451.473 189.806 447.11 184.252 447.11 184.252C447.11 184.252 448.696 178.302 446.316 179.492Z" fill="#FE5454"/>
<path d="M423.704 217.178V234.633L411.01 276.683C411.01 276.683 402.68 298.502 411.01 298.502C419.341 298.502 418.894 277.677 418.894 277.677L436.795 246.137C436.795 246.137 443.936 221.145 443.143 219.162C442.349 217.178 423.704 217.178 423.704 217.178Z" fill="#A0616A"/>
<path d="M430.448 191.393C430.448 191.393 418.547 196.153 421.721 208.848C424.895 221.542 421.721 221.145 421.721 221.145C421.721 221.145 437.986 219.559 443.143 223.129L444.333 218.368C444.333 218.368 449.093 190.996 430.448 191.393Z" fill="#FE5454"/>
<path d="M421.668 153.597C420.752 153.922 419.769 154.014 418.809 153.864C417.849 153.715 416.941 153.329 416.167 152.741C414.671 151.509 414.037 149.236 414.917 147.509C415.676 146.019 417.301 145.201 418.859 144.591C422.296 143.247 425.916 142.429 429.596 142.166C431.351 142.041 433.194 142.061 434.76 142.863C435.535 143.26 436.208 143.832 436.976 144.243C438.387 144.998 440.029 145.166 441.554 145.653C443.114 146.162 444.546 147 445.755 148.11C446.963 149.221 447.918 150.578 448.557 152.09C448.971 153.117 449.261 154.189 449.419 155.285C449.875 158.286 449.557 161.353 448.493 164.195C446.802 168.698 443.256 172.634 443.056 177.439C440.885 175.864 440.08 173.021 438.34 170.98C437.046 169.471 435.279 168.446 433.326 168.072C432.786 168.039 432.267 167.85 431.832 167.527C431.529 167.165 431.339 166.722 431.286 166.254L429.801 159.241C429.498 157.813 429.116 156.257 427.943 155.39C427.213 154.923 426.384 154.631 425.522 154.537C423.474 154.179 421.4 153.99 419.321 153.972" fill="#2F2E41"/>
</g>
<defs>
<clipPath id="clip0">
<rect width="519" height="412" fill="white"/>
</clipPath>
</defs>
</svg>
